<svg width="128" height="128" viewBox="0 0 128 128" xmlns="http://www.w3.org/2000/svg">
  <rect width="128" height="128" rx="24" fill="#05070D"/>
  <path d="M22 18C38 27 90 27 106 18C115 47 105 94 64 111C23 94 13 47 22 18Z" fill="#10131D" stroke="#7C3AED" stroke-width="5"/>
  <path d="M34 50C45 42 54 42 60 50C52 59 41 58 34 50Z" fill="none" stroke="#52E3FF" stroke-width="5" stroke-linecap="round"/>
  <path d="M94 50C83 42 74 42 68 50C76 59 87 58 94 50Z" fill="none" stroke="#52E3FF" stroke-width="5" stroke-linecap="round"/>
  <path d="M34 78C48 92 80 92 94 78" fill="none" stroke="#A78BFA" stroke-width="5" stroke-linecap="round"/>
  <path d="M43 80L43 85M52 83L52 88M61 84L61 90M70 84L70 90M79 83L79 88M88 80L88 85" stroke="#52E3FF" stroke-width="4" stroke-linecap="round"/>
</svg>
